<?xml version="1.0" encoding="UTF-8" standalone="no"?><!DOCTYPE svg PUBLIC "-//W3C//DTD SVG 1.1//EN" "http://www.w3.org/Graphics/SVG/1.1/DTD/svg11.dtd"><svg width="100%" height="100%" viewBox="0 0 24 24" version="1.1" xmlns="http://www.w3.org/2000/svg" xmlns:xlink="http://www.w3.org/1999/xlink" xml:space="preserve" style="fill-rule:evenodd;clip-rule:evenodd;stroke-linejoin:round;stroke-miterlimit:1.41421;"><rect id="branding" x="-0.205" y="0.417" width="24" height="24" style="fill:none;"/><g id="Livello-1"><g><clipPath id="_clip1"><rect x="8.03" y="6.905" width="7.785" height="10.765"/></clipPath><g clip-path="url(#_clip1)"><path d="M11.63,12.295l1.148,1.214l0.012,4.131l-2.858,0.03l0,-1.812l1.566,0l0,-1.643l-1.471,-1.612l1.399,-3.44c-0.167,-0.384 -0.538,-0.676 -0.849,-0.676c-0.765,0 -1.136,0.614 -1.136,1.536l0,7.647l-1.411,0l0,-7.647c0,-1.981 1.124,-3.102 2.535,-3.102c0.933,0 1.938,0.844 2.368,1.981l-1.303,3.393Z" style="fill:#fff;fill-rule:nonzero;"/><path d="M13.746,15.689l1.471,0l-0.239,1.981l-1.471,0l0.239,-1.981Zm0.203,-8.784l1.364,0l-0.419,3.225l0.921,0l-0.55,4.131l-1.388,0l0.443,-3.071l-0.945,0l0.574,-4.285Z" style="fill:#fff;fill-rule:nonzero;"/></g></g><path d="M4.936,5.585l-3.054,0l0,-3.092l3.054,0l0,3.092Zm-2.054,-2.092l0,1.092l1.054,0l0,-1.092l-1.054,0Z" style="fill:#fff;"/><path d="M4.936,22.3l-3.054,0l0,-3.092l3.054,0l0,3.092Zm-2.054,-2.092l0,1.092l1.054,0l0,-1.092l-1.054,0Z" style="fill:#fff;"/><path d="M21.838,5.585l-3.054,0l0,-3.092l3.054,0l0,3.092Zm-2.054,-2.092l0,1.092l1.054,0l0,-1.092l-1.054,0Z" style="fill:#fff;"/><path d="M21.838,22.3l-3.054,0l0,-3.092l3.054,0l0,3.092Zm-2.054,-2.092l0,1.092l1.054,0l0,-1.092l-1.054,0Z" style="fill:#fff;"/><rect x="4.622" y="3.669" width="14.637" height="1" style="fill:#fff;"/><rect x="4.622" y="20.324" width="14.637" height="1" style="fill:#fff;"/><path d="M20.768,19.815l-1,0l0,-14.637l1,0l0,14.637Z" style="fill:#fff;"/><path d="M4.113,19.815l-1,0l0,-14.637l1,0l0,14.637Z" style="fill:#fff;"/></g></svg>