<?xml version="1.0" encoding="UTF-8" standalone="no"?><!DOCTYPE svg PUBLIC "-//W3C//DTD SVG 1.1//EN" "http://www.w3.org/Graphics/SVG/1.1/DTD/svg11.dtd"><svg width="100%" height="100%" viewBox="0 0 24 24" version="1.1" xmlns="http://www.w3.org/2000/svg" xmlns:xlink="http://www.w3.org/1999/xlink" xml:space="preserve" style="fill-rule:evenodd;clip-rule:evenodd;stroke-linejoin:round;stroke-miterlimit:1.41421;"><rect id="editorial-design" x="0.223" y="0" width="24" height="24" style="fill:none;"/><path d="M12.609,18.006l-9.5,0l0,-14.003l9.5,0l0,14.003Zm-8.5,-13.003l0,12.003l7.5,0l0,-12.003l-7.5,0Z" style="fill:#fff;"/><rect x="5.162" y="5.989" width="4.993" height="1" style="fill:#fff;"/><rect x="5.162" y="5.989" width="4.993" height="1" style="fill:#fff;"/><rect x="5.162" y="9.938" width="4.993" height="1" style="fill:#fff;"/><rect x="5.162" y="14.017" width="4.993" height="1" style="fill:#fff;"/><rect x="6.112" y="8.008" width="4.111" height="1" style="fill:#fff;"/><rect x="6.112" y="11.958" width="4.111" height="1" style="fill:#fff;"/><path d="M21.196,18.006l-9.5,0l0,-14.003l9.5,0l0,14.003Zm-8.5,-13.003l0,12.003l7.5,0l0,-12.003l-7.5,0Z" style="fill:#fff;"/><path d="M12.11,19.725l0.722,-0.723l8.328,0l0,1l-7.913,0l-1.137,1.137l-1.172,-1.171l-7.795,0l0,-1l8.21,0l0.757,0.757Z" style="fill:#fff;"/><rect x="14.162" y="5.989" width="4.993" height="1" style="fill:#fff;"/><rect x="14.162" y="5.989" width="4.993" height="1" style="fill:#fff;"/><rect x="14.162" y="9.938" width="4.993" height="1" style="fill:#fff;"/><rect x="14.162" y="14.017" width="4.993" height="1" style="fill:#fff;"/><rect x="14.094" y="8.008" width="4.111" height="1" style="fill:#fff;"/><rect x="14.094" y="11.958" width="4.111" height="1" style="fill:#fff;"/><path d="M12.11,19.725l0.722,-0.723l8.328,0l0,1l-7.913,0l-1.137,1.137l-1.172,-1.171l-7.795,0l0,-1l8.21,0l0.757,0.757Z" style="fill:#fff;"/></svg>