<?xml version="1.0" encoding="UTF-8" standalone="no"?><!DOCTYPE svg PUBLIC "-//W3C//DTD SVG 1.1//EN" "http://www.w3.org/Graphics/SVG/1.1/DTD/svg11.dtd"><svg width="100%" height="100%" viewBox="0 0 25 24" version="1.1" xmlns="http://www.w3.org/2000/svg" xmlns:xlink="http://www.w3.org/1999/xlink" xml:space="preserve" style="fill-rule:evenodd;clip-rule:evenodd;stroke-linejoin:round;stroke-miterlimit:1.41421;"><rect id="education" x="0.733" y="0" width="24" height="24" style="fill:none;"/><path d="M19.674,17.006l-10.913,0l0,-14.003l10.913,0l0,14.003Zm-9.913,-13.003l0,12.003l8.913,0l0,-12.003l-8.913,0Z" style="fill:#fff;"/><path d="M7.682,18.047l11.036,0l0,1l-12.036,0l0,-15.078l1,0l0,14.078Z" style="fill:#fff;"/><rect x="10.722" y="16.378" width="1" height="4.522" style="fill:#fff;"/><rect x="10.732" y="4.989" width="6.035" height="1" style="fill:#fff;"/><rect x="10.732" y="7.006" width="4.269" height="1" style="fill:#fff;"/><rect x="10.732" y="8.988" width="6.035" height="1" style="fill:#fff;"/><rect x="10.732" y="11.014" width="5.143" height="1" style="fill:#fff;"/></svg>