<?xml version="1.0" encoding="UTF-8" standalone="no"?><!DOCTYPE svg PUBLIC "-//W3C//DTD SVG 1.1//EN" "http://www.w3.org/Graphics/SVG/1.1/DTD/svg11.dtd"><svg width="100%" height="100%" viewBox="0 0 24 24" version="1.1" xmlns="http://www.w3.org/2000/svg" xmlns:xlink="http://www.w3.org/1999/xlink" xml:space="preserve" style="fill-rule:evenodd;clip-rule:evenodd;stroke-linejoin:round;stroke-miterlimit:1.41421;"><rect id="user-interface" x="0.04" y="0.417" width="24" height="24" style="fill:none;"/><path d="M14.026,12.404l-11.991,0l0,-9.898l11.991,0l0,9.898Zm-10.991,-8.898l0,7.898l9.991,0l0,-7.898l-9.991,0Z" style="fill:#fff;"/><path d="M10.136,4.425l1.898,1.976l0.023,2.015l-2.019,-1.013l-0.01,3.022l-3.985,-0.007l-0.024,-3.019l-1.971,1.025l-0.028,-1.992l2.011,-2.031l4.105,0.024Zm-5.01,2.311l1.448,-0.754l0.435,0.262l0.026,3.176l1.996,0.003l0.01,-3.168l0.421,-0.259l1.536,0.77l-1.291,-1.344l-3.261,-0.019l-1.32,1.333Z" style="fill:#fff;"/><rect x="15.122" y="9.435" width="6.914" height="1" style="fill:#fff;"/><rect x="15.122" y="11.435" width="5.088" height="1" style="fill:#fff;"/><path d="M5.035,16.527l-3.054,0l0,-3.092l3.054,0l0,3.092Zm-2.054,-2.092l0,1.092l1.054,0l0,-1.092l-1.054,0Z" style="fill:#fff;"/><path d="M13.942,16.527l-3.054,0l0,-3.092l3.054,0l0,3.092Zm-2.054,-2.092l0,1.092l1.054,0l0,-1.092l-1.054,0Z" style="fill:#fff;"/><rect x="6.962" y="14.355" width="2.091" height="1" style="fill:#fff;"/><rect x="7.171" y="19.258" width="1.096" height="1" style="fill:#fff;"/><rect x="14.026" y="19.258" width="1.096" height="1" style="fill:#fff;"/><rect x="16.884" y="19.441" width="3.122" height="1" style="fill:#fff;"/><path d="M18.945,21.502l-1,0l0,-3.123l1,0l0,3.123Z" style="fill:#fff;"/><rect x="1.986" y="19.258" width="4.554" height="1" style="fill:#fff;"/><rect x="8.986" y="19.258" width="4.554" height="1" style="fill:#fff;"/><rect x="1.986" y="21.258" width="13.07" height="1" style="fill:#fff;"/><rect x="1.986" y="17.678" width="13.07" height="1" style="fill:#fff;"/><path d="M21.886,8.485l-6.327,0l0,-6.055l6.327,0l0,6.055Zm-5.327,-5.055l0,4.055l4.327,0l0,-4.055l-4.327,0Z" style="fill:#fff;"/><path d="M19.76,5.373l-1.253,1.404l-0.746,-0.666l0.645,-0.723l-0.641,-0.686l0.731,-0.683l1.264,1.354Z" style="fill:#fff;"/></svg>