<?xml version="1.0" encoding="UTF-8" standalone="no"?><!DOCTYPE svg PUBLIC "-//W3C//DTD SVG 1.1//EN" "http://www.w3.org/Graphics/SVG/1.1/DTD/svg11.dtd"><svg width="100%" height="100%" viewBox="0 0 24 24" version="1.1" xmlns="http://www.w3.org/2000/svg" xmlns:xlink="http://www.w3.org/1999/xlink" xml:space="preserve" style="fill-rule:evenodd;clip-rule:evenodd;stroke-linejoin:round;stroke-miterlimit:1.41421;"><rect id="user-experience" x="-0.126" y="0.417" width="24" height="24" style="fill:none;"/><path d="M6.793,7.387l-4.022,0l0,-4.065l4.022,0l0,4.065Zm-3.022,-3.065l0,2.065l2.022,0l0,-2.065l-2.022,0Z" style="fill:#fff;"/><path d="M6.824,21.361l-4.022,0l0,-4.065l4.022,0l0,4.065Zm-3.022,-3.065l0,2.065l2.022,0l0,-2.065l-2.022,0Z" style="fill:#fff;"/><path d="M13.787,7.387l-4.022,0l0,-4.065l4.022,0l0,4.065Zm-3.022,-3.065l0,2.065l2.022,0l0,-2.065l-2.022,0Z" style="fill:#fff;"/><path d="M13.956,13.258l-2.192,2.191l-2.168,-2.168l2.191,-2.192l2.169,2.169Zm-2.946,0.023l0.754,0.754l0.777,-0.777l-0.754,-0.754l-0.777,0.777Z" style="fill:#fff;"/><path d="M20.82,7.387l-4.022,0l0,-4.065l4.022,0l0,4.065Zm-3.022,-3.065l0,2.065l2.022,0l0,-2.065l-2.022,0Z" style="fill:#fff;"/><path d="M20.87,21.425l-4.022,0l0,-4.065l4.022,0l0,4.065Zm-3.022,-3.065l0,2.065l2.022,0l0,-2.065l-2.022,0Z" style="fill:#fff;"/><rect x="6.592" y="4.93" width="3.65" height="0.942" style="fill:#fff;"/><rect x="13.625" y="4.93" width="3.65" height="0.942" style="fill:#fff;"/><rect x="13.179" y="12.93" width="6" height="0.942" style="fill:#fff;"/><rect x="4.42" y="12.93" width="6" height="0.942" style="fill:#fff;"/><path d="M19.321,17.804l-0.942,0l0,-4.886l0.942,0l0,4.886Z" style="fill:#fff;"/><path d="M5.36,17.804l-0.943,0l0,-4.886l0.943,0l0,4.886Z" style="fill:#fff;"/><path d="M12.252,12.434l-0.942,0l0,-5.756l0.942,0l0,5.756Z" style="fill:#fff;"/><path d="M20.253,8.723l-4.494,3.467l-0.074,-0.018l-1.199,-2.535l0.904,-0.427l0.694,1.466l3.558,-2.745l0.611,0.792Z" style="fill:#fff;"/><path d="M6.944,11.172l-0.707,0.707l-2.45,-2.449l0.707,-0.708l2.45,2.45Z" style="fill:#fff;"/><path d="M6.944,9.43l-2.45,2.449l-0.707,-0.707l2.45,-2.45l0.707,0.708Z" style="fill:#fff;"/></svg>